<mxfile host="app.diagrams.net" modified="2023-05-14T15:29:06.955Z" agent="Mozilla/5.0 (Windows NT 10.0; Win64; x64) AppleWebKit/537.36 (KHTML, like Gecko) Chrome/113.0.0.0 Safari/537.36" etag="FQBhmNlEQhbD_gayKQ5H" version="21.2.9" type="device">
  <diagram name="Page-1" id="tQq-vzoPbHXfOGGB9aHV">
    <mxGraphModel dx="1050" dy="573" grid="1" gridSize="10" guides="1" tooltips="1" connect="1" arrows="1" fold="1" page="1" pageScale="1" pageWidth="850" pageHeight="1100" math="0" shadow="0">
      <root>
        <mxCell id="0" />
        <mxCell id="1" parent="0" />
        <mxCell id="Yde884PF93SgHucOl-hY-3" value="" style="edgeStyle=orthogonalEdgeStyle;rounded=0;orthogonalLoop=1;jettySize=auto;html=1;" edge="1" parent="1" source="Yde884PF93SgHucOl-hY-1" target="Yde884PF93SgHucOl-hY-2">
          <mxGeometry relative="1" as="geometry" />
        </mxCell>
        <mxCell id="Yde884PF93SgHucOl-hY-1" value="&lt;font style=&quot;font-size: 26px;&quot;&gt;start&lt;/font&gt;" style="ellipse;whiteSpace=wrap;html=1;fillColor=#e51400;fontColor=#ffffff;strokeColor=#B20000;" vertex="1" parent="1">
          <mxGeometry x="365" width="120" height="80" as="geometry" />
        </mxCell>
        <mxCell id="Yde884PF93SgHucOl-hY-5" value="" style="edgeStyle=orthogonalEdgeStyle;rounded=0;orthogonalLoop=1;jettySize=auto;html=1;" edge="1" parent="1" source="Yde884PF93SgHucOl-hY-2" target="Yde884PF93SgHucOl-hY-4">
          <mxGeometry relative="1" as="geometry" />
        </mxCell>
        <mxCell id="Yde884PF93SgHucOl-hY-2" value="&lt;font style=&quot;font-size: 20px;&quot;&gt;i = 0&lt;br&gt;t = 0&lt;/font&gt;" style="rounded=0;whiteSpace=wrap;html=1;fillColor=#fa6800;fontColor=#000000;strokeColor=#C73500;" vertex="1" parent="1">
          <mxGeometry x="365" y="110" width="120" height="60" as="geometry" />
        </mxCell>
        <mxCell id="Yde884PF93SgHucOl-hY-7" value="" style="edgeStyle=orthogonalEdgeStyle;rounded=0;orthogonalLoop=1;jettySize=auto;html=1;" edge="1" parent="1" source="Yde884PF93SgHucOl-hY-4" target="Yde884PF93SgHucOl-hY-6">
          <mxGeometry relative="1" as="geometry" />
        </mxCell>
        <mxCell id="Yde884PF93SgHucOl-hY-4" value="&lt;font style=&quot;font-size: 21px;&quot;&gt;get the n&lt;/font&gt;" style="shape=parallelogram;perimeter=parallelogramPerimeter;whiteSpace=wrap;html=1;fixedSize=1;fillColor=#f0a30a;fontColor=#000000;strokeColor=#BD7000;" vertex="1" parent="1">
          <mxGeometry x="365" y="200" width="120" height="60" as="geometry" />
        </mxCell>
        <mxCell id="Yde884PF93SgHucOl-hY-10" value="" style="edgeStyle=orthogonalEdgeStyle;rounded=0;orthogonalLoop=1;jettySize=auto;html=1;" edge="1" parent="1" source="Yde884PF93SgHucOl-hY-6" target="Yde884PF93SgHucOl-hY-8">
          <mxGeometry relative="1" as="geometry" />
        </mxCell>
        <mxCell id="Yde884PF93SgHucOl-hY-6" value="&lt;font style=&quot;font-size: 20px;&quot;&gt;t = t + n&lt;br&gt;i = i + 1&lt;br&gt;&lt;/font&gt;" style="rounded=0;whiteSpace=wrap;html=1;fillColor=#e3c800;fontColor=#000000;strokeColor=#B09500;" vertex="1" parent="1">
          <mxGeometry x="365" y="290" width="120" height="60" as="geometry" />
        </mxCell>
        <mxCell id="Yde884PF93SgHucOl-hY-9" style="edgeStyle=orthogonalEdgeStyle;rounded=0;orthogonalLoop=1;jettySize=auto;html=1;entryX=0;entryY=0.5;entryDx=0;entryDy=0;" edge="1" parent="1" source="Yde884PF93SgHucOl-hY-8" target="Yde884PF93SgHucOl-hY-4">
          <mxGeometry relative="1" as="geometry">
            <Array as="points">
              <mxPoint x="140" y="420" />
              <mxPoint x="140" y="230" />
            </Array>
          </mxGeometry>
        </mxCell>
        <mxCell id="Yde884PF93SgHucOl-hY-13" value="" style="edgeStyle=orthogonalEdgeStyle;rounded=0;orthogonalLoop=1;jettySize=auto;html=1;" edge="1" parent="1" source="Yde884PF93SgHucOl-hY-8" target="Yde884PF93SgHucOl-hY-12">
          <mxGeometry relative="1" as="geometry" />
        </mxCell>
        <mxCell id="Yde884PF93SgHucOl-hY-8" value="&lt;font style=&quot;font-size: 18px;&quot;&gt;i &amp;lt; 5&lt;/font&gt;" style="rhombus;whiteSpace=wrap;html=1;fillColor=#b0e3e6;strokeColor=#0e8088;" vertex="1" parent="1">
          <mxGeometry x="385" y="380" width="80" height="80" as="geometry" />
        </mxCell>
        <mxCell id="Yde884PF93SgHucOl-hY-11" value="&lt;font style=&quot;font-size: 20px;&quot;&gt;yes&lt;/font&gt;" style="text;html=1;strokeColor=none;fillColor=none;align=center;verticalAlign=middle;whiteSpace=wrap;rounded=0;" vertex="1" parent="1">
          <mxGeometry x="200" y="380" width="60" height="30" as="geometry" />
        </mxCell>
        <mxCell id="Yde884PF93SgHucOl-hY-15" value="" style="edgeStyle=orthogonalEdgeStyle;rounded=0;orthogonalLoop=1;jettySize=auto;html=1;" edge="1" parent="1" source="Yde884PF93SgHucOl-hY-12" target="Yde884PF93SgHucOl-hY-14">
          <mxGeometry relative="1" as="geometry" />
        </mxCell>
        <mxCell id="Yde884PF93SgHucOl-hY-12" value="&lt;font style=&quot;font-size: 21px;&quot;&gt;print the t&lt;/font&gt;" style="shape=document;whiteSpace=wrap;html=1;boundedLbl=1;fillColor=#fad9d5;strokeColor=#ae4132;" vertex="1" parent="1">
          <mxGeometry x="365" y="490" width="120" height="80" as="geometry" />
        </mxCell>
        <mxCell id="Yde884PF93SgHucOl-hY-14" value="&lt;font style=&quot;font-size: 26px;&quot;&gt;end&lt;/font&gt;" style="ellipse;whiteSpace=wrap;html=1;fillColor=#e51400;fontColor=#ffffff;strokeColor=#B20000;" vertex="1" parent="1">
          <mxGeometry x="365" y="590" width="120" height="80" as="geometry" />
        </mxCell>
        <mxCell id="Yde884PF93SgHucOl-hY-16" value="&lt;font style=&quot;font-size: 20px;&quot;&gt;no&lt;/font&gt;" style="text;html=1;strokeColor=none;fillColor=none;align=center;verticalAlign=middle;whiteSpace=wrap;rounded=0;" vertex="1" parent="1">
          <mxGeometry x="450" y="450" width="60" height="30" as="geometry" />
        </mxCell>
      </root>
    </mxGraphModel>
  </diagram>
</mxfile>
